<svg width="24" height="24" version="1.1" viewBox="0 0 24 24" xmlns="http://www.w3.org/2000/svg">
 <circle cx="12" cy="12" r="10" fill="#941751" fill-rule="evenodd" stroke-linecap="round" stroke-linejoin="round" stroke-width="7.6931" style="paint-order:stroke markers fill"/>
 <path d="m19.865 17.2c-0.1292-0.1201-0.2273-0.2447-0.2605-0.36-0.1305-0.457 0.0416-1.7852 0.3004-2.1999 0.258-0.4162-0.0278-1.6651-0.1122-1.8718-0.0868-0.2079-0.1159-0.4777-0.4121-0.3959-0.2979 0.0834-0.9673 0.0523-1.5727-0.0722-0.607-0.1234-1.1355-0.7081-1.2564-1.3674-0.1354-0.7391-0.1354-1.4571 0.0374-1.9073 0.1932-0.50607 0.6689-0.69764 1.1044-0.9363 0.2006-0.10936 1.1712-0.26421 1.1347-0.73117-0.2256-0.43024-2.2861 0.05907-2.3687-0.60944-0.0836-0.6697-0.1131-1.0058 0.1483-1.5446 0.2742-0.56194-0.0411-0.48691-0.1168-1.1682-0.0103-0.09699 0.2045-0.34763 0.2215-0.43583 0.7109 0.4043 1.3786 0.88762 1.9777 1.4631 1.8768 1.8036 2.9101 4.2014 2.9101 6.7521 0 1.9517-0.6095 3.8103-1.7351 5.3848zm-4.4212-0.3029c-0.4097 0.6505-0.3112 1.1297-1.2459 1.627-0.5206 0.2773-0.891 0.3559-1.1664 1.1007-0.2766 0.7432-0.7352 0.717-1.8801 1.3208-1.1466 0.6053-1.602 0-1.6954-0.4643-0.093-0.4643 0.18956-1.561 0.18956-1.561s0.11207-0.3276-0.70024-0.6976c-2.0542-0.9355-0.28177-4.2198-0.28177-4.2198-0.46418-0.5433-1.6429-1.6089-3.2886-1.9579-1.5734-0.3329-2.022-1.2563-2.5748-2.178 0.40457-1.7064 1.2546-3.2746 2.5097-4.5482 1.7951-1.8209 4.1812-2.9188 6.7218-2.9188 0 0 0.8568 0 1.6656 0.2124-0.7396 0.81413-1.567 1.6371-2.1818 1.864-1.1068 0.41109-1.6199 1.0846-1.6246 1.802-0.00239 0.3716 0.76704 1.0451 0.76704 1.8971 0 1.4481-1.0627 1.4816-1.1867 0.87135-0.27978-1.384-1.35-1.0265-2.6317-0.88788-1.2836 0.13985-2.0614 1.6512-1.2372 2.2558 0.82583 0.6046 0.78331-0.191 1.1008-0.41793 0.31594-0.22731 0.53929-0.31718 0.77933 0 0.23805 0.31723 0.75429 0.48973 0.70461 1.1406-0.04331 0.6505-0.18241 1.2074 0.68991 1.2074 0.87114 0 0.90134 0.1943 1.4542 0.4728 0.5472 0.2789 1.0655 0.2265 1.5221 0.32 0.4586 0.0923 1.0595 0.9903 1.0595 0.9903 1.2999 0.426 1.7275 0.6001 2.0864 0.9628 0.3577 0.3627 0.8592 1.1555 0.4447 1.8064zm-3.4451-16.897h-0.0064c-4.7607 0-8.862 2.7812-10.802 6.8-0.76024 1.5748-1.1904 3.3344-1.1904 5.2-8.0025e-4 6.6264 5.3653 12 11.994 12h0.0064c6.6261 0 12.001-5.3736 12-11.998 8e-4 -6.6876-5.4533-12.002-12.001-12.002z" clip-rule="evenodd" fill="#fff" fill-rule="evenodd"/>
</svg>
